<svg viewBox="0 0 200 150" xmlns="http://www.w3.org/2000/svg">

    <defs>

        <linearGradient id="grad_light" x1="0%" y1="0%" x2="100%" y2="100%">

            <stop offset="0%" style="stop-color:#BEE3F8;stop-opacity:1" />

            <stop offset="100%" style="stop-color:#3182CE;stop-opacity:1" />

        </linearGradient>

    </defs>

    <rect x="20" y="50" width="100" height="80" rx="5" fill="url(#grad_light)" opacity="0.2"/>

    <path d="M 50 120 Q 52 100, 70 90 T 100 85" stroke="#3182CE" stroke-width="3" fill="none" opacity="0.5"/>

    <circle cx="140" cy="70" r="30" fill="url(#grad_light)" opacity="0.1"/>

    <path d="M125,75 C125,58.4 138.4,45 155,45 L155,45 C171.6,45 185,58.4 185,75 L185,115 L125,115 L125,75 Z" fill="#FFFFFF" stroke="#BEE3F8" stroke-width="2"/>

    <rect x="135" y="115" width="40" height="5" rx="2.5" fill="#BEE3F8"/>

    <circle cx="155" cy="80" r="12" fill="none" stroke="#3182CE" stroke-width="2"/>

    <circle cx="155" cy="80" r="5" fill="#3182CE"/>

    <rect x="60" y="30" width="15" height="95" rx="3" fill="#FFFFFF" stroke="#BEE3F8" stroke-width="2" transform="rotate(-15 67.5 77.5)"/>

    <rect x="40" y="35" width="15" height="90" rx="3" fill="#FFFFFF" stroke="#BEE3F8" stroke-width="2" transform="rotate(-15 47.5 80)"/>

    <rect x="20" y="40" width="15" height="85" rx="3" fill="#3182CE" stroke="#1A365D" stroke-width="1" transform="rotate(-15 27.5 82.5)"/>

</svg>

